<svg width="72" height="72" viewBox="0 0 160 160" fill="none" xmlns="http://www.w3.org/2000/svg">
  <defs>
    <linearGradient id="brainStroke" x1="20" y1="30" x2="140" y2="120" gradientUnits="userSpaceOnUse">
      <stop stop-color="#55C8FF"/>
      <stop offset="0.5" stop-color="#2AF0C9"/>
      <stop offset="1" stop-color="#9CF670"/>
    </linearGradient>
    <linearGradient id="checkGrad" x1="85" y1="95" x2="140" y2="145" gradientUnits="userSpaceOnUse">
      <stop stop-color="#2AF0C9"/>
      <stop offset="1" stop-color="#9CF670"/>
    </linearGradient>
  </defs>
  <path d="M58 32c-14 0-26 12-26 26 0 3 0 6 1 8-6 4-11 12-11 20 0 12 9 22 20 24v4c0 13 10 24 23 24h46c16 0 28-12 28-28 0-6-2-12-6-16 7-5 11-12 11-22 0-14-10-26-24-28-3-12-15-22-28-22-5 0-10 1-14 3-6-7-15-11-25-11Z"
        stroke="url(#brainStroke)" stroke-width="8" stroke-linecap="round" stroke-linejoin="round" fill="none"/>
  <path d="M50 66l10 6 12-10 12 10 14-6" stroke="url(#brainStroke)" stroke-width="6" stroke-linecap="round" stroke-linejoin="round"/>
  <path d="M46 88l8 8 14-6 12 10" stroke="url(#brainStroke)" stroke-width="6" stroke-linecap="round" stroke-linejoin="round"/>
  <path d="M86 80l12 6 14-10" stroke="url(#brainStroke)" stroke-width="6" stroke-linecap="round" stroke-linejoin="round"/>
  <circle cx="52" cy="64" r="4.5" fill="#55C8FF"/>
  <circle cx="62" cy="70" r="4.5" fill="#2AF0C9"/>
  <circle cx="74" cy="60" r="4.5" fill="#55C8FF"/>
  <circle cx="86" cy="70" r="4.5" fill="#9CF670"/>
  <circle cx="102" cy="64" r="4.5" fill="#55C8FF"/>
  <circle cx="56" cy="88" r="4.5" fill="#2AF0C9"/>
  <circle cx="74" cy="92" r="4.5" fill="#55C8FF"/>
  <circle cx="98" cy="82" r="4.5" fill="#9CF670"/>
  <path d="M86 94l18 16 30-38" stroke="url(#checkGrad)" stroke-width="10" stroke-linecap="round" stroke-linejoin="round"/>
</svg>
